# File created by Blade
# Date/Time:  Fri Jan 16 19:41:12 2015
# Frame Rate: 120.000 fps
#------------------------------------------------------
:FULLY-SPECIFIED
:DEGREES
1529
root 18.461600 35.453616 -21.768867 9.854808 5.304023 -0.768525
Spine -21.753730 -1.984412 0.018407
Head 11.240876 -3.164250 0.578211
LeftShoulder -14.280928 -31.243272 21.286434
LeftArm -3.663030 0.611404 -8.567625
LeftForeArm 11.570583 -0.000000 -2.208904
LeftHand -4.470211 0.000000 -4.823419
LeftHandThumb1 -26.253704 0.000000 33.147579
RightShoulder -11.110199 -2.124085 -11.298703
RightArm 2.083591 35.975156 7.663422
RightForeArm -37.462569 0.000000 6.167931
RightHand -7.492848 -0.000000 8.879406
RightHandThumb1 -24.326973 -0.000000 -32.862282
LeftUpLeg -0.523565 4.279396 1.747032
LeftLeg -6.777136 -0.000000 0.000000
LeftFoot -20.599340 26.442854 -13.812393
LeftToeBase 24.740078 -0.000000 -0.000000
RightUpLeg -0.458944 -10.593148 0.319080
RightLeg -4.236159 -0.000000 0.000000
RightFoot -22.866016 -29.107038 16.701706
RightToeBase 23.254161 -0.000000 -0.000000
1530
root 18.463640 35.453884 -21.776651 9.857955 5.299688 -0.758815
Spine -21.729241 -1.974842 0.003002
Head 11.272944 -3.221811 0.584808
LeftShoulder -14.294083 -31.223624 21.247478
LeftArm -3.645319 0.651813 -8.643404
LeftForeArm 11.517609 -0.000000 -2.239767
LeftHand -4.555626 -0.000000 -4.853559
LeftHandThumb1 -26.253704 0.000000 33.147579
RightShoulder -11.097789 -2.135310 -11.265048
RightArm 2.108391 35.957287 7.715789
RightForeArm -37.365932 -0.000000 6.105136
RightHand -7.603925 -0.000000 8.851910
RightHandThumb1 -24.326973 -0.000000 -32.862282
LeftUpLeg -0.534991 4.275121 1.731955
LeftLeg -6.781786 -0.000000 0.000000
LeftFoot -20.579141 26.441997 -13.820428
LeftToeBase 24.687396 -0.000000 -0.000000
RightUpLeg -0.471048 -10.614935 0.314062
RightLeg -4.249934 -0.000000 0.000000
RightFoot -22.846134 -29.123861 16.666168
RightToeBase 23.264648 -0.000000 -0.000000
1531
root 18.466072 35.454886 -21.783767 9.866589 5.295137 -0.760441
Spine -21.717090 -1.964242 0.002035
Head 11.310975 -3.260029 0.597506
LeftShoulder -14.312460 -31.224669 21.223117
LeftArm -3.635048 0.737522 -8.729464
LeftForeArm 11.505772 0.000000 -2.299503
LeftHand -4.523889 -0.000000 -4.879460
LeftHandThumb1 -26.253704 0.000000 33.147579
RightShoulder -11.107923 -2.176355 -11.245539
RightArm 2.219127 35.912419 7.832339
RightForeArm -37.177536 -0.000000 6.002921
RightHand -7.679173 -0.000000 8.789813
RightHandThumb1 -24.326973 -0.000000 -32.862282
LeftUpLeg -0.554024 4.291243 1.725777
LeftLeg -6.784240 -0.000000 0.000000
LeftFoot -20.579389 26.435772 -13.816894
LeftToeBase 24.760855 -0.000000 -0.000000
RightUpLeg -0.489284 -10.595610 0.309091
RightLeg -4.250911 -0.000000 0.000000
RightFoot -22.843701 -29.165099 16.597157
RightToeBase 23.506915 -0.000000 -0.000000
1532
root 18.467203 35.455635 -21.792240 9.875637 5.296282 -0.757172
Spine -21.704410 -1.956029 -0.009060
Head 11.358866 -3.315187 0.600504
LeftShoulder -14.296989 -31.189221 21.173987
LeftArm -3.633579 0.791858 -8.802271
LeftForeArm 11.393143 -0.000000 -2.354688
LeftHand -4.523675 -0.000000 -4.934979
LeftHandThumb1 -26.253704 0.000000 33.147579
RightShoulder -11.091764 -2.190678 -11.223829
RightArm 2.183152 35.961106 7.880156
RightForeArm -37.288668 0.000000 6.050870
RightHand -7.619081 0.000000 8.945391
RightHandThumb1 -24.326973 -0.000000 -32.862282
LeftUpLeg -0.578996 4.285725 1.717979
LeftLeg -6.780678 -0.000000 0.000000
LeftFoot -20.563395 26.443988 -13.799174
LeftToeBase 24.735808 -0.000000 -0.000000
RightUpLeg -0.513126 -10.612146 0.310974
RightLeg -4.253500 -0.000000 0.000000
RightFoot -22.819333 -29.124680 16.659667
RightToeBase 23.286219 -0.000000 -0.000000
1533
root 18.469540 35.456561 -21.798773 9.875788 5.301650 -0.759517
Spine -21.682883 -1.950131 -0.007544
Head 11.403111 -3.374199 0.595722
LeftShoulder -14.291705 -31.183779 21.138046
LeftArm -3.648629 0.845942 -8.876862
LeftForeArm 11.412490 -0.000000 -2.403468
LeftHand -4.448398 -0.000000 -5.023544
LeftHandThumb1 -26.253704 0.000000 33.147579
RightShoulder -11.065998 -2.176956 -11.197609
RightArm 2.183993 35.973562 7.924364
RightForeArm -37.262595 -0.000000 5.999418
RightHand -7.611467 -0.000000 8.916206
RightHandThumb1 -24.326973 -0.000000 -32.862282
LeftUpLeg -0.589175 4.284368 1.713844
LeftLeg -6.785812 -0.000000 0.000000
LeftFoot -20.554125 26.453787 -13.801959
LeftToeBase 24.730835 -0.000000 -0.000000
RightUpLeg -0.515257 -10.621202 0.309658
RightLeg -4.268402 -0.000000 0.000000
RightFoot -22.797111 -29.109457 16.672520
RightToeBase 23.265206 -0.000000 -0.000000
1534
root 18.473001 35.457515 -21.805822 9.877587 5.285529 -0.755929
Spine -21.663111 -1.929216 -0.014333
Head 11.446702 -3.442641 0.588918
LeftShoulder -14.289406 -31.156949 21.096239
LeftArm -3.655046 0.887174 -8.951505
LeftForeArm 11.308630 -0.000000 -2.444681
LeftHand -4.430087 0.000000 -5.122868
LeftHandThumb1 -26.253704 0.000000 33.147579
RightShoulder -11.048836 -2.184586 -11.191054
RightArm 2.212198 35.999093 8.009434
RightForeArm -37.120627 -0.000000 5.933732
RightHand -7.644190 -0.000000 8.946754
RightHandThumb1 -24.326973 -0.000000 -32.862282
LeftUpLeg -0.595298 4.307363 1.697816
LeftLeg -6.794493 -0.000000 0.000000
LeftFoot -20.532277 26.452652 -13.806039
LeftToeBase 24.667410 -0.000000 -0.000000
RightUpLeg -0.527598 -10.611064 0.299053
RightLeg -4.272875 -0.000000 0.000000
RightFoot -22.785527 -29.112484 16.670044
RightToeBase 23.267397 -0.000000 -0.000000
1535
root 18.474727 35.458464 -21.812430 9.876521 5.286591 -0.753309
Spine -21.640442 -1.918132 -0.023913
Head 11.492872 -3.502699 0.579660
LeftShoulder -14.266096 -31.156296 21.050755
LeftArm -3.671234 0.868523 -9.004784
LeftForeArm 11.400929 0.000000 -2.517635
LeftHand -4.128530 -0.000000 -5.319636
LeftHandThumb1 -26.253704 0.000000 33.147579
RightShoulder -11.047674 -2.192645 -11.172589
RightArm 2.236754 36.011094 8.079969
RightForeArm -37.173260 0.000000 5.908190
RightHand -7.610568 -0.000000 8.999927
RightHandThumb1 -24.326973 -0.000000 -32.862282
LeftUpLeg -0.619062 4.373708 1.684801
LeftLeg -6.772527 -0.000000 0.000000
LeftFoot -20.521379 26.407591 -13.771378
LeftToeBase 24.751557 -0.000000 -0.000000
RightUpLeg -0.530493 -10.612077 0.293568
RightLeg -4.284273 -0.000000 0.000000
RightFoot -22.768672 -29.110433 16.669793
RightToeBase 23.268884 -0.000000 -0.000000
1536
root 18.477797 35.459293 -21.820365 9.876065 5.289673 -0.750209
Spine -21.615254 -1.912739 -0.029611
Head 11.520200 -3.543758 0.595820
LeftShoulder -14.250339 -31.141709 21.009390
LeftArm -3.693353 0.971716 -9.082816
LeftForeArm 11.188647 -0.000000 -2.555342
LeftHand -4.181102 0.000000 -5.258707
LeftHandThumb1 -26.253704 0.000000 33.147579
RightShoulder -11.025162 -2.194364 -11.160608
RightArm 2.235219 35.992222 8.129433
RightForeArm -37.014630 0.000000 5.850324
RightHand -7.526283 -0.000000 9.097861
RightHandThumb1 -24.326973 -0.000000 -32.862282
LeftUpLeg -0.629601 4.365820 1.675040
LeftLeg -6.777338 -0.000000 0.000000
LeftFoot -20.513944 26.404554 -13.775664
LeftToeBase 24.744356 -0.000000 -0.000000
RightUpLeg -0.539683 -10.624496 0.290207
RightLeg -4.292378 -0.000000 0.000000
RightFoot -22.751015 -29.125051 16.653147
RightToeBase 23.307599 -0.000000 -0.000000
1537
root 18.480243 35.459676 -21.827256 9.869019 5.296435 -0.737435
Spine -21.582349 -1.920356 -0.048315
Head 11.557785 -3.590847 0.600532
LeftShoulder -14.243548 -31.122441 20.982296
LeftArm -3.711692 0.961730 -9.149691
LeftForeArm 11.028190 -0.000000 -2.618107
LeftHand -4.050579 -0.000000 -5.175905
LeftHandThumb1 -26.253704 0.000000 33.147579
RightShoulder -11.029475 -2.237836 -11.150059
RightArm 2.329908 36.038618 8.265608
RightForeArm -36.974141 0.000000 5.814910
RightHand -7.634554 -0.000000 9.052310
RightHandThumb1 -24.326973 -0.000000 -32.862282
LeftUpLeg -0.629124 4.366303 1.656587
LeftLeg -6.785057 -0.000000 0.000000
LeftFoot -20.487504 26.403044 -13.768282
LeftToeBase 24.698672 -0.000000 -0.000000
RightUpLeg -0.537222 -10.660573 0.277360
RightLeg -4.305031 -0.000000 0.000000
RightFoot -22.718996 -29.115504 16.612102
RightToeBase 23.273122 -0.000000 -0.000000
